# xmcd CD database file
#
# Track frame offsets:
#	150
#	14840
#	39175
#	54589
#	67871
#	80789
#	109331
#	121905
#	135994
#	149841
#	163804
#	178519
#	193045
#	208361
#	221387
#
# Disc length: 3128 seconds
#
# Revision: 0
# Processed by: cddbd v1.5.1PL0 Copyright (c) Steve Scherf et al.
# Submitted via: CDex 1.51
#
DISCID=e40c360f
DTITLE=Lionel Hampton - Ultimate jazz and Blues disc 27
DYEAR=2004
DGENRE=Jazz
TTITLE0=Memories of tou
TTITLE1=Mr. Pc
TTITLE2=Ring dem bells
TTITLE3=I know what you know
TTITLE4=Four or five times
TTITLE5=how high the moon
TTITLE6=Slide hamp slide
TTITLE7=Play boy
TTITLE8=Beluah's sister boogie
TTITLE9=Cobb's idea
TTITLE10=Hamp's boogie woogie No 1
TTITLE11=Drum stomp ( grazy rhythem
TTITLE12=One sweet letter from you
TTITLE13=I've found a new baby
TTITLE14=Hamp's boogie woogie No 2
EXTD=YEAR: 2004
EXTT0=
EXTT1=
EXTT2=
EXTT3=
EXTT4=
EXTT5=
EXTT6=
EXTT7=
EXTT8=
EXTT9=
EXTT10=
EXTT11=
EXTT12=
EXTT13=
EXTT14=
PLAYORDER=
